<?xml version="1.0" encoding="UTF-8"?>
<!DOCTYPE svg PUBLIC "-//W3C//DTD SVG 1.1//EN" "http://www.w3.org/Graphics/SVG/1.1/DTD/svg11.dtd">
<!-- Creator: CorelDRAW X8 -->
<svg xmlns="http://www.w3.org/2000/svg" xml:space="preserve" width="29px" height="57px" version="1.1" style="shape-rendering:geometricPrecision; text-rendering:geometricPrecision; image-rendering:optimizeQuality; fill-rule:evenodd; clip-rule:evenodd"
viewBox="0 0 125 244"
 xmlns:xlink="http://www.w3.org/1999/xlink">
 <defs>
  <style type="text/css">
   <![CDATA[
    .str0 {stroke:#FEFEFE;stroke-width:4.27103;stroke-linecap:round;stroke-linejoin:round}
    .fil1 {fill:none}
    .fil0 {fill:#FFB400}
   ]]>
  </style>
 </defs>
 <g id="Слой_x0020_1">
  <metadata id="CorelCorpID_0Corel-Layer"/>
  <g id="_59043917600">
   <rect class="fil0" y="51" width="125" height="193" rx="63" ry="64"/>
   <path class="fil1 str0" d="M20 84l94 94"/>
   <path class="fil1 str0" d="M20 125l82 82"/>
   <path class="fil1 str0" d="M20 164l64 63"/>
   <path class="fil1 str0" d="M98 115l-79 79"/>
   <path class="fil1 str0" d="M114 162l-65 65"/>
   <path class="fil0 str0" d="M22 39c19,30 34,40 46,32 4,-15 -11,-25 -46,-32z"/>
   <path class="fil0 str0" d="M103 36c-13,27 -26,38 -37,31 -5,-12 8,-23 37,-31z"/>
   <path class="fil0 str0" d="M97 10c-8,30 -18,44 -31,39 -7,-11 3,-25 31,-39z"/>
   <path class="fil0 str0" d="M31 17c28,15 39,28 32,40 -13,4 -24,-9 -32,-40z"/>
   <path class="fil0 str0" d="M72 2c4,22 2,33 -8,34 -8,-5 -5,-16 8,-34z"/>
   <path class="fil0 str0" d="M46 7c14,12 18,21 13,26 -8,1 -12,-8 -13,-26z"/>
  </g>
 </g>
</svg>
