<?xml version="1.0" encoding="UTF-8"?>
<!DOCTYPE svg PUBLIC "-//W3C//DTD SVG 1.1//EN" "http://www.w3.org/Graphics/SVG/1.1/DTD/svg11.dtd">
<!-- Creator: CorelDRAW X8 -->
<svg xmlns="http://www.w3.org/2000/svg" xml:space="preserve" width="59px" height="59px" version="1.1" style="shape-rendering:geometricPrecision; text-rendering:geometricPrecision; image-rendering:optimizeQuality; fill-rule:evenodd; clip-rule:evenodd"
viewBox="0 0 576 576"
 xmlns:xlink="http://www.w3.org/1999/xlink">
 <defs>
  <style type="text/css">
   <![CDATA[
    .str0 {stroke:#FFD800;stroke-width:19.4373;stroke-linecap:round;stroke-linejoin:round}
    .fil0 {fill:none}
    .fil1 {fill:#FFD800}
   ]]>
  </style>
 </defs>
 <g id="Слой_x0020_1">
  <metadata id="CorelCorpID_0Corel-Layer"/>
  <g id="_59043948192">
   <circle class="fil0 str0" cx="288" cy="288" r="278"/>
   <path class="fil1" d="M355 85l-67 166 -69 -166c-11,-28 28,-45 68,-46 39,0 79,18 68,46zm-68 30c-7,0 -12,-12 -12,-28 0,-3 0,-6 1,-8l0 -1c1,-8 4,-14 7,-17l0 0 1 0 0 0c1,-1 2,-1 3,-1l0 0 0 0 0 0c7,0 12,12 12,26l0 0 0 1 0 0c-1,13 -5,24 -11,25l-1 3z"/>
   <path class="fil1" d="M479 192l-165 70 69 -166c11,-28 52,-13 80,15 28,28 44,69 16,81zm-69 -27c-5,-5 0,-17 11,-28 2,-2 4,-4 7,-6l0 0c6,-5 13,-8 18,-7l0 0 0 0 0 0c1,0 2,1 3,2l0 0 0 0 0 0c4,5 0,17 -10,27l-1 0 0 1 0 0c-10,9 -20,13 -25,10l-3 1z"/>
   <path class="fil1" d="M491 355l-166 -67 166 -69c28,-11 46,28 46,68 0,39 -18,79 -46,68zm-30 -68c0,-6 13,-12 28,-12 3,0 6,0 9,1l0 0c8,1 15,4 17,7l0 1 0 0 0 0c1,1 2,2 2,3l0 0 0 0 0 0c-1,7 -12,12 -27,12l0 0 -1 0 0 0c-13,-1 -24,-5 -25,-11l-3 -1z"/>
   <path class="fil1" d="M384 479l-70 -165 166 69c28,11 13,52 -15,80 -28,28 -69,44 -81,16zm27 -69c5,-5 17,0 28,11 2,2 4,4 6,7l0 0c5,6 8,13 7,18l0 0 0 0 0 0c0,1 -1,2 -1,3l-1 0 0 0 0 0c-4,4 -16,0 -26,-10l-1 -1 0 0 -1 0c-8,-10 -13,-20 -10,-25l-1 -3z"/>
   <path class="fil1" d="M221 491l67 -166 69 166c12,28 -28,46 -67,46 -40,0 -80,-18 -69,-46zm68 -30c7,0 12,13 12,28 0,3 0,6 -1,9l0 0c-1,8 -4,15 -7,17l0 0 0 0 0 1c-1,0 -2,1 -4,1l0 0 0 0 0 0c-6,-1 -12,-12 -12,-27l0 0 0 -1 0 0c1,-13 5,-23 11,-25l1 -3z"/>
   <path class="fil1" d="M97 384l165 -70 -69 166c-11,28 -52,13 -80,-15 -28,-28 -44,-69 -16,-81zm70 27c4,5 -1,17 -12,28 -2,2 -4,4 -6,6l0 0c-7,5 -14,8 -18,7l0 0 0 0 0 0c-2,0 -3,-1 -4,-1l0 0 0 -1 0 0c-4,-4 0,-16 11,-26l0 -1 1 0 0 0c9,-9 20,-14 24,-11l4 -1z"/>
   <path class="fil1" d="M85 221l166 67 -166 69c-28,12 -45,-28 -46,-67 0,-40 18,-80 46,-69zm30 68c0,7 -12,12 -28,12 -3,0 -6,0 -8,-1l-1 0c-8,-1 -14,-4 -17,-7l0 0 0 0 0 0c-1,-1 -1,-2 -1,-4l0 0 0 0 0 0c0,-6 12,-12 26,-12l0 0 1 0 0 0c13,1 24,5 25,11l3 1z"/>
   <path class="fil1" d="M192 97l70 165 -166 -69c-28,-11 -13,-52 15,-80 28,-28 69,-44 81,-16zm-27 70c-5,4 -17,-1 -28,-12 -2,-2 -4,-4 -6,-6l0 0c-5,-7 -8,-14 -7,-18l0 0 0 0 0 0c0,-2 1,-3 2,-4l0 0 0 0 0 0c5,-4 17,0 27,11l0 0 1 1 0 0c9,9 13,20 10,24l1 4z"/>
  </g>
 </g>
</svg>
