<?xml version="1.0" encoding="UTF-8"?>
<!DOCTYPE svg PUBLIC "-//W3C//DTD SVG 1.1//EN" "http://www.w3.org/Graphics/SVG/1.1/DTD/svg11.dtd">
<!-- Creator: CorelDRAW X8 -->
<svg xmlns="http://www.w3.org/2000/svg" xml:space="preserve" width="45px" height="57px" version="1.1" style="shape-rendering:geometricPrecision; text-rendering:geometricPrecision; image-rendering:optimizeQuality; fill-rule:evenodd; clip-rule:evenodd"
viewBox="0 0 381 487"
 xmlns:xlink="http://www.w3.org/1999/xlink">
 <defs>
  <style type="text/css">
   <![CDATA[
    .str0 {stroke:#FF7500;stroke-width:25.5324}
    .fil1 {fill:none}
    .fil0 {fill:#FF7500}
   ]]>
  </style>
 </defs>
 <g id="Слой_x0020_1">
  <metadata id="CorelCorpID_0Corel-Layer"/>
  <g id="_59046547248">
   <path class="fil0" d="M258 166c0,0 0,0 0,0 0,0 0,0 0,0zm-59 -64c18,0 34,15 34,34 0,19 -16,34 -34,34 -19,0 -35,-15 -35,-34 0,-19 16,-34 35,-34zm-32 -33c-14,-20 -40,-27 -62,-16 -22,11 -33,36 -26,59 7,23 30,38 54,35 -24,3 -42,24 -43,48 0,24 17,45 41,50 24,4 47,-9 55,-32 2,24 19,43 43,47 24,3 47,-12 54,-35 8,-23 -3,-48 -25,-59 0,0 0,0 0,0 22,11 49,4 63,-16 14,-19 12,-47 -6,-64 -17,-17 -44,-19 -64,-5 16,-18 15,-46 -1,-64 -16,-18 -43,-22 -64,-9 -20,13 -28,39 -19,61z"/>
   <path class="fil0" d="M324 460c-76,-54 -119,-128 -129,-221 -5,-8 -8,-17 -9,-26 -1,4 -3,8 -6,12 8,123 51,210 129,262 10,-6 15,-15 15,-27z"/>
   <path class="fil1 str0" d="M325 218c66,110 57,184 -27,222 -69,-61 -60,-135 27,-222z"/>
   <path class="fil0" d="M310 434c-6,-54 -5,-104 5,-150 -22,45 -31,93 -28,145 4,4 7,7 11,11 4,-2 8,-4 12,-6z"/>
   <path class="fil1 str0" d="M20 340c79,101 151,120 216,55 -31,-86 -103,-105 -216,-55z"/>
   <path class="fil0" d="M227 404c-48,-25 -96,-42 -142,-49 49,-4 98,4 146,26 2,4 4,9 5,14 -3,3 -6,6 -9,9z"/>
  </g>
 </g>
</svg>
