<?xml version="1.0" encoding="UTF-8"?>
<!DOCTYPE svg PUBLIC "-//W3C//DTD SVG 1.1//EN" "http://www.w3.org/Graphics/SVG/1.1/DTD/svg11.dtd">
<!-- Creator: CorelDRAW X8 -->
<svg xmlns="http://www.w3.org/2000/svg" xml:space="preserve" width="43px" height="57px" version="1.1" style="shape-rendering:geometricPrecision; text-rendering:geometricPrecision; image-rendering:optimizeQuality; fill-rule:evenodd; clip-rule:evenodd"
viewBox="0 0 282 371"
 xmlns:xlink="http://www.w3.org/1999/xlink">
 <defs>
  <style type="text/css">
   <![CDATA[
    .fil0 {fill:#00798B}
   ]]>
  </style>
 </defs>
 <g id="Слой_x0020_1">
  <metadata id="CorelCorpID_0Corel-Layer"/>
  <path class="fil0" d="M185 0l-166 0c-11,0 -19,8 -19,19l0 334c0,10 8,18 19,18l166 0c10,0 19,-8 19,-18l0 -185c3,0 7,1 10,4 3,3 4,7 4,10l0 130c-1,11 2,22 11,29 7,5 14,7 21,7 7,0 14,-2 21,-7 8,-7 11,-18 11,-29l0 -191c0,-5 0,-9 -2,-15 -1,-6 -3,-14 -8,-23 -5,-8 -12,-18 -19,-26 -8,-9 -16,-17 -20,-22 -4,-4 -5,-4 -8,-2 -3,3 -9,8 -14,14 5,5 11,10 15,14 4,4 5,8 6,15 0,7 0,18 1,25 1,8 4,13 7,15 3,3 6,4 9,4 3,1 5,1 8,1l0 191c0,7 -2,10 -7,10 -5,0 -7,-3 -7,-10l0 -130c0,-10 -4,-20 -11,-28 -8,-7 -18,-11 -28,-11l0 -124c0,-11 -9,-19 -19,-19zm-28 19l-111 0c-6,0 -11,5 -11,11l0 102c0,7 5,12 11,12l111 0c6,0 11,-5 11,-12l0 -102c0,-6 -5,-11 -11,-11zm-55 277c29,-2 29,-25 0,-69 -28,44 -28,67 0,69z"/>
 </g>
</svg>
