<?xml version="1.0" encoding="UTF-8"?>
<!DOCTYPE svg PUBLIC "-//W3C//DTD SVG 1.1//EN" "http://www.w3.org/Graphics/SVG/1.1/DTD/svg11.dtd">
<!-- Creator: CorelDRAW X8 -->
<svg xmlns="http://www.w3.org/2000/svg" xml:space="preserve" width="56px" height="57px" version="1.1" style="shape-rendering:geometricPrecision; text-rendering:geometricPrecision; image-rendering:optimizeQuality; fill-rule:evenodd; clip-rule:evenodd"
viewBox="0 0 567 575"
 xmlns:xlink="http://www.w3.org/1999/xlink">
 <defs>
  <style type="text/css">
   <![CDATA[
    .str0 {stroke:#FEFEFE;stroke-width:10.0689;stroke-linecap:round;stroke-linejoin:round}
    .fil2 {fill:none}
    .fil0 {fill:#00B800}
    .fil1 {fill:#00B800}
   ]]>
  </style>
 </defs>
 <g id="Слой_x0020_1">
  <metadata id="CorelCorpID_0Corel-Layer"/>
  <g id="_59046608464">
   <path class="fil0" d="M126 303c-2,8 -2,16 -2,23 -1,0 -2,0 -2,0 -6,-2 -16,-5 -29,-6 -13,-1 -30,-1 -43,3 -13,4 -22,11 -31,22 -8,10 -15,24 -18,40 -2,16 -1,34 5,61 6,26 16,60 23,81 8,22 12,30 18,36 6,6 14,9 25,11 10,1 22,1 31,0 9,-1 14,-4 18,-6 4,-2 8,-3 12,-5 4,2 7,3 12,5 4,2 9,5 18,6 8,1 21,1 31,0 11,-2 19,-5 25,-11 6,-6 10,-14 18,-36 7,-21 17,-55 23,-81 6,-27 7,-45 4,-61 -2,-16 -10,-30 -18,-40 -8,-11 -17,-18 -30,-22 -13,-4 -30,-4 -43,-3 -14,1 -23,4 -29,6 0,0 -1,0 -2,0 1,-7 2,-13 5,-19 2,-6 5,-11 9,-14 4,-4 8,-7 9,-10 2,-2 2,-5 0,-8 -2,-2 -5,-5 -8,-6 -3,-2 -6,-2 -9,0 -4,1 -8,4 -12,10 -4,7 -8,16 -10,24z"/>
   <g>
    <rect class="fil1" x="271" y="120" width="296" height="455" rx="148" ry="152"/>
    <path class="fil2 str0" d="M319 199l221 221"/>
    <path class="fil2 str0" d="M319 295l192 192"/>
    <path class="fil2 str0" d="M319 386l150 150"/>
    <path class="fil2 str0" d="M502 270l-186 187"/>
    <path class="fil2 str0" d="M540 382l-154 154"/>
    <path class="fil1 str0" d="M324 92c43,70 79,95 108,75 9,-35 -27,-60 -108,-75z"/>
    <path class="fil1 str0" d="M514 85c-32,65 -61,89 -88,74 -11,-29 19,-54 88,-74z"/>
    <path class="fil1 str0" d="M501 23c-19,72 -44,103 -75,93 -16,-27 8,-59 75,-93z"/>
    <path class="fil1 str0" d="M344 40c67,34 92,65 76,93 -30,11 -56,-20 -76,-93z"/>
    <path class="fil1 str0" d="M442 5c9,51 3,78 -19,81 -19,-13 -13,-40 19,-81z"/>
    <path class="fil1 str0" d="M380 15c33,29 43,51 30,64 -19,1 -29,-20 -30,-64z"/>
   </g>
  </g>
 </g>
</svg>
