<?xml version="1.0" encoding="UTF-8"?>
<!DOCTYPE svg PUBLIC "-//W3C//DTD SVG 1.1//EN" "http://www.w3.org/Graphics/SVG/1.1/DTD/svg11.dtd">
<!-- Creator: CorelDRAW X8 -->
<svg xmlns="http://www.w3.org/2000/svg" xml:space="preserve" width="43px" height="57px" version="1.1" style="shape-rendering:geometricPrecision; text-rendering:geometricPrecision; image-rendering:optimizeQuality; fill-rule:evenodd; clip-rule:evenodd"
viewBox="0 0 294 388"
 xmlns:xlink="http://www.w3.org/1999/xlink">
 <defs>
  <style type="text/css">
   <![CDATA[
    .fil0 {fill:#00B800}
   ]]>
  </style>
 </defs>
 <g id="Слой_x0020_1">
  <metadata id="CorelCorpID_0Corel-Layer"/>
  <path class="fil0" d="M292 151c1,-2 1,-4 2,-6 1,-11 0,-21 -3,-30 -3,-8 -9,-16 -16,-21 -2,-2 -5,-4 -8,-6 -5,-3 -9,-5 -12,-7 -5,-4 -7,-7 -11,-14 -4,-8 -9,-19 -16,-29 -6,-9 -14,-17 -25,-23 -11,-6 -25,-10 -37,-13 -13,-2 -23,-3 -36,-1 -12,2 -27,6 -40,15 -14,8 -28,21 -36,31 -8,11 -10,20 -15,26 -4,6 -10,11 -17,17 0,0 -1,1 -2,1 -7,7 -14,16 -18,28 -3,12 -2,28 0,39 2,11 6,18 11,23 6,6 14,11 21,17 7,7 13,15 21,22 3,3 7,6 11,8 5,3 11,5 17,7 10,3 22,6 30,8 9,3 13,7 18,11l0 121c0,7 6,13 14,13 7,0 14,-6 14,-13l0 -90c13,-17 26,-34 37,-44 12,-10 23,-13 28,-16 6,-2 6,-4 8,-8 2,-4 5,-9 11,-13 5,-4 13,-7 20,-11 8,-4 14,-9 20,-17 4,-7 8,-16 9,-25zm-133 110l7 -9c2,-3 4,-6 4,-8 1,-2 -1,-4 -3,-5 -2,0 -5,1 -8,2l0 20z"/>
 </g>
</svg>
