<?xml version="1.0" encoding="UTF-8"?>
<!DOCTYPE svg PUBLIC "-//W3C//DTD SVG 1.1//EN" "http://www.w3.org/Graphics/SVG/1.1/DTD/svg11.dtd">
<!-- Creator: CorelDRAW X8 -->
<svg xmlns="http://www.w3.org/2000/svg" xml:space="preserve" width="19px" height="57px" version="1.1" style="shape-rendering:geometricPrecision; text-rendering:geometricPrecision; image-rendering:optimizeQuality; fill-rule:evenodd; clip-rule:evenodd"
viewBox="0 0 59 180"
 xmlns:xlink="http://www.w3.org/1999/xlink">
 <defs>
  <style type="text/css">
   <![CDATA[
    .fil0 {fill:#00798B}
   ]]>
  </style>
 </defs>
 <g id="Слой_x0020_1">
  <metadata id="CorelCorpID_0Corel-Layer"/>
  <path class="fil0" d="M36 0c2,0 5,2 5,5 0,3 -3,5 -5,5 -3,0 -5,-2 -5,-5 0,-3 2,-5 5,-5zm-36 44l59 0 0 8 -7 0 0 105c0,13 -10,23 -23,23l0 0c-12,0 -22,-10 -22,-23l0 -105 -7 0 0 -8zm36 15c3,0 5,3 5,5 0,3 -2,5 -5,5 -3,0 -5,-2 -5,-5 0,-2 2,-5 5,-5zm-2 74c3,0 5,2 5,5 0,2 -2,5 -5,5 -3,0 -5,-3 -5,-5 0,-3 2,-5 5,-5zm-15 -22c2,0 5,2 5,5 0,2 -3,5 -5,5 -3,0 -6,-3 -6,-5 0,-3 3,-5 6,-5zm-1 -32c3,0 5,3 5,5 0,3 -2,5 -5,5 -2,0 -5,-2 -5,-5 0,-2 3,-5 5,-5zm19 12c5,0 9,4 9,9 0,5 -4,9 -9,9 -5,0 -9,-4 -9,-9 0,-5 4,-9 9,-9zm-19 -67c2,0 5,2 5,4 0,3 -3,5 -5,5 -3,0 -5,-2 -5,-5 0,-2 2,-4 5,-4zm18 -11c3,0 5,3 5,5 0,3 -2,5 -5,5 -2,0 -4,-2 -4,-5 0,-2 2,-5 4,-5z"/>
 </g>
</svg>
