<?xml version="1.0" encoding="UTF-8"?>
<!DOCTYPE svg PUBLIC "-//W3C//DTD SVG 1.1//EN" "http://www.w3.org/Graphics/SVG/1.1/DTD/svg11.dtd">
<!-- Creator: CorelDRAW X8 -->
<svg xmlns="http://www.w3.org/2000/svg" xml:space="preserve" width="57px" height="57px" version="1.1" style="shape-rendering:geometricPrecision; text-rendering:geometricPrecision; image-rendering:optimizeQuality; fill-rule:evenodd; clip-rule:evenodd"
viewBox="0 0 610 610"
 xmlns:xlink="http://www.w3.org/1999/xlink">
 <defs>
  <style type="text/css">
   <![CDATA[
    .str0 {stroke:#FEFEFE;stroke-width:21.5444;stroke-linecap:round;stroke-linejoin:round}
    .fil1 {fill:none}
    .fil2 {fill:#FEFEFE}
    .fil0 {fill:#FFD800}
   ]]>
  </style>
 </defs>
 <g id="Слой_x0020_1">
  <metadata id="CorelCorpID_0Corel-Layer"/>
  <g id="_59081905632">
   <circle class="fil0" cx="305" cy="305" r="305"/>
   <g>
    <path class="fil1 str0" d="M119 309c37,-29 83,-43 130,-40 -33,-33 -76,-53 -121,-56"/>
    <path class="fil1 str0" d="M491 309c-37,-29 -83,-43 -130,-40 33,-33 76,-53 121,-56"/>
   </g>
   <path class="fil1 str0" d="M155 452c101,-33 209,-33 310,0"/>
   <path class="fil2" d="M341 493c0,14 7,27 19,34 13,7 28,7 40,0 12,-7 19,-20 19,-34l0 -55c-11,-3 -24,-5 -36,-7 -12,-2 -24,-3 -36,-4 -2,0 -4,-1 -6,-1l0 64 0 3zm32 6l14 0 0 -56 -14 -2 0 58z"/>
  </g>
 </g>
</svg>
