<?xml version="1.0" encoding="UTF-8"?>
<!DOCTYPE svg PUBLIC "-//W3C//DTD SVG 1.1//EN" "http://www.w3.org/Graphics/SVG/1.1/DTD/svg11.dtd">
<!-- Creator: CorelDRAW X8 -->
<svg xmlns="http://www.w3.org/2000/svg" xml:space="preserve" width="44px" height="57px" version="1.1" style="shape-rendering:geometricPrecision; text-rendering:geometricPrecision; image-rendering:optimizeQuality; fill-rule:evenodd; clip-rule:evenodd"
viewBox="0 0 305 399"
 xmlns:xlink="http://www.w3.org/1999/xlink">
 <defs>
  <style type="text/css">
   <![CDATA[
    .fil1 {fill:#FEFEFE}
    .fil0 {fill:#F11A7B}
   ]]>
  </style>
 </defs>
 <g id="Слой_x0020_1">
  <metadata id="CorelCorpID_0Corel-Layer"/>
  <g id="_59046553488">
   <g>
    <path class="fil0" d="M141 77c-29,10 -57,11 -83,2 -23,11 -40,27 -48,49 -38,98 39,261 143,271 104,-10 180,-173 143,-271 -9,-22 -25,-37 -47,-48 -36,18 -72,17 -108,-3z"/>
    <path class="fil0" d="M134 54c-16,-2 -31,-3 -45,2 19,0 25,2 40,6 0,0 -1,1 -2,2 -16,15 -45,14 -84,-1 33,-21 62,-26 88,-15 2,2 3,4 3,6z"/>
    <path class="fil0" d="M151 42c-12,-10 -24,-19 -39,-22 16,9 20,14 31,26 -1,0 -2,0 -3,1 -22,4 -46,-13 -70,-47 39,0 66,12 81,36 2,2 2,4 0,6z"/>
    <path class="fil0" d="M162 59c15,-3 31,-5 45,0 -19,0 -25,3 -40,8 1,0 2,1 2,1 17,15 46,12 85,-5 -35,-20 -64,-22 -89,-9 -3,1 -4,3 -3,5z"/>
    <path class="fil0" d="M158 47c7,-8 15,-15 24,-18 -10,8 -12,11 -19,20 1,0 1,0 2,0 15,2 30,-11 44,-36 -26,3 -44,13 -52,30 -1,1 -1,3 1,4z"/>
   </g>
   <g>
    <ellipse class="fil1" cx="153" cy="363" rx="9" ry="18"/>
    <ellipse class="fil1" cx="153" cy="247" rx="9" ry="18"/>
    <ellipse class="fil1" cx="153" cy="122" rx="9" ry="18"/>
    <ellipse class="fil1" cx="68" cy="122" rx="9" ry="18"/>
    <ellipse class="fil1" cx="237" cy="122" rx="9" ry="18"/>
    <g>
     <ellipse class="fil1" cx="110" cy="304" rx="9" ry="18"/>
     <ellipse class="fil1" cx="195" cy="304" rx="9" ry="18"/>
    </g>
    <ellipse class="fil1" cx="68" cy="247" rx="9" ry="18"/>
    <ellipse class="fil1" cx="238" cy="247" rx="9" ry="18"/>
    <g>
     <ellipse class="fil1" cx="110" cy="181" rx="9" ry="18"/>
     <ellipse class="fil1" cx="195" cy="181" rx="9" ry="18"/>
    </g>
    <g>
     <ellipse class="fil1" cx="26" cy="189" rx="9" ry="18"/>
     <ellipse class="fil1" cx="279" cy="189" rx="9" ry="18"/>
    </g>
   </g>
  </g>
 </g>
</svg>
