<?xml version="1.0" encoding="UTF-8"?>
<!DOCTYPE svg PUBLIC "-//W3C//DTD SVG 1.1//EN" "http://www.w3.org/Graphics/SVG/1.1/DTD/svg11.dtd">
<!-- Creator: CorelDRAW X8 -->
<svg xmlns="http://www.w3.org/2000/svg" xml:space="preserve" width="57px" height="52px" version="1.1" style="shape-rendering:geometricPrecision; text-rendering:geometricPrecision; image-rendering:optimizeQuality; fill-rule:evenodd; clip-rule:evenodd"
viewBox="0 0 515 470"
 xmlns:xlink="http://www.w3.org/1999/xlink">
 <defs>
  <style type="text/css">
   <![CDATA[
    .fil1 {fill:#FEFEFE}
    .fil0 {fill:#B12575}
   ]]>
  </style>
 </defs>
 <g id="Слой_x0020_1">
  <metadata id="CorelCorpID_0Corel-Layer"/>
  <g id="_59043935040">
   <path class="fil0" d="M90 337c-9,-10 -16,-22 -17,-37 -2,-14 2,-32 9,-46 6,-13 15,-22 20,-30 4,-8 3,-16 4,-26 1,-11 5,-24 10,-35 6,-12 15,-21 21,-32 6,-12 10,-26 18,-38 8,-11 20,-21 30,-26 10,-6 19,-7 25,-10 5,-4 9,-9 17,-16 8,-7 19,-14 30,-19 11,-5 21,-6 32,-6 11,0 23,2 32,0 10,-2 17,-8 26,-11 8,-4 18,-5 29,-5 11,0 23,1 31,3 8,2 12,5 17,4 6,-1 13,-5 20,-5 8,-1 16,2 23,6 6,5 11,11 12,19 1,8 -2,18 -4,26 -2,7 -3,12 -3,20 1,7 2,17 1,26 -1,10 -4,19 -10,28 -6,9 -14,18 -19,28 -5,9 -5,20 -7,30 -1,10 -4,19 -10,29 -6,11 -16,22 -21,32 -6,11 -7,19 -14,29 -7,10 -20,21 -31,29 -11,8 -21,13 -29,19 -8,6 -15,14 -33,20 -18,6 -48,10 -70,15 -23,6 -38,15 -55,16 -18,2 -37,-3 -52,-10 -14,-7 -24,-17 -32,-27z"/>
   <path class="fil1" d="M0 457c6,10 14,14 24,12 54,-70 109,-137 165,-198 13,10 29,16 49,16 -15,-7 -28,-16 -40,-26 20,-21 39,-41 59,-61 11,9 25,14 43,15 -13,-6 -25,-14 -35,-24 20,-20 40,-40 61,-59 8,6 19,10 32,10 -10,-4 -18,-9 -26,-16 26,-24 51,-47 77,-69 -23,12 -52,32 -86,60 -7,-9 -13,-18 -17,-30 1,15 5,27 11,35 -19,17 -40,36 -63,58 -9,-11 -17,-24 -23,-38 3,19 7,34 15,46 -19,18 -39,38 -60,61 -12,-14 -21,-30 -28,-48 2,24 9,43 19,57 -52,55 -111,122 -177,199z"/>
   <path class="fil0" d="M104 352c-2,-2 -5,-4 -7,-7 0,0 0,0 0,0 -31,35 -63,72 -97,112 6,10 14,14 24,12 30,-38 59,-75 89,-111 -3,-1 -6,-4 -9,-6z"/>
   <path class="fil0" d="M155 403c-6,-8 -7,-5 -10,-11 14,8 33,3 48,3 16,-1 30,-7 51,-12 21,-4 48,-6 65,-10 16,-4 23,-11 31,-16 7,-5 16,-9 27,-16 10,-6 22,-16 29,-24 7,-9 9,-17 14,-26 6,-8 15,-18 21,-28 6,-9 9,-17 11,-25 2,-9 3,-19 8,-28 5,-8 13,-15 19,-23 6,-8 9,-16 10,-25 1,-9 1,-9 1,-15 0,-3 4,-25 7,-25 4,0 12,2 18,7 5,4 10,10 10,17 0,7 -3,16 -5,22 -3,7 -3,11 -4,18 0,6 1,15 0,23 -2,8 -5,17 -10,24 -6,8 -14,15 -19,23 -4,9 -5,18 -7,27 -2,8 -5,16 -11,25 -6,9 -15,18 -20,27 -6,9 -8,16 -14,25 -7,8 -19,17 -29,24 -10,6 -19,9 -26,15 -8,5 -14,11 -30,15 -17,5 -43,6 -63,10 -20,5 -34,11 -49,11 -16,1 -33,-4 -45,-12 -12,-7 -23,-13 -28,-20z"/>
  </g>
 </g>
</svg>
