<?xml version="1.0" encoding="UTF-8"?>
<!DOCTYPE svg PUBLIC "-//W3C//DTD SVG 1.1//EN" "http://www.w3.org/Graphics/SVG/1.1/DTD/svg11.dtd">
<!-- Creator: CorelDRAW X8 -->
<svg xmlns="http://www.w3.org/2000/svg" xml:space="preserve" width="57px" height="57px" version="1.1" style="shape-rendering:geometricPrecision; text-rendering:geometricPrecision; image-rendering:optimizeQuality; fill-rule:evenodd; clip-rule:evenodd"
viewBox="0 0 577 577"
 xmlns:xlink="http://www.w3.org/1999/xlink">
 <defs>
  <style type="text/css">
   <![CDATA[
    .str0 {stroke:#FEFEFE;stroke-width:30.5295;stroke-linecap:round;stroke-linejoin:round}
    .fil1 {fill:none}
    .fil0 {fill:#FFD800}
   ]]>
  </style>
 </defs>
 <g id="Слой_x0020_1">
  <metadata id="CorelCorpID_0Corel-Layer"/>
  <g id="_59084806224">
   <path class="fil0" d="M33 479c-13,56 9,78 65,65 103,64 258,34 369,-77 111,-111 141,-266 77,-369 13,-56 -9,-78 -65,-65 -103,-64 -258,-34 -369,77 -111,111 -141,266 -77,369zm313 -419c12,0 21,9 21,20 0,12 -9,21 -21,21 -12,0 -21,-9 -21,-21 0,-11 9,-20 21,-20zm-63 15c10,0 18,7 18,17 0,10 -8,18 -18,18 -10,0 -17,-8 -17,-18 0,-10 7,-17 17,-17zm-23 50c8,0 14,6 14,14 0,8 -6,14 -14,14 -8,0 -14,-6 -14,-14 0,-8 6,-14 14,-14z"/>
   <path class="fil1 str0" d="M307 503c-62,28 -134,22 -190,-16"/>
  </g>
 </g>
</svg>
