<?xml version="1.0" encoding="UTF-8"?>
<!DOCTYPE svg PUBLIC "-//W3C//DTD SVG 1.1//EN" "http://www.w3.org/Graphics/SVG/1.1/DTD/svg11.dtd">
<!-- Creator: CorelDRAW X8 -->
<svg xmlns="http://www.w3.org/2000/svg" xml:space="preserve" width="57px" height="57px" version="1.1" style="shape-rendering:geometricPrecision; text-rendering:geometricPrecision; image-rendering:optimizeQuality; fill-rule:evenodd; clip-rule:evenodd"
viewBox="0 0 585 585"
 xmlns:xlink="http://www.w3.org/1999/xlink">
 <defs>
  <style type="text/css">
   <![CDATA[
    .str0 {stroke:#FEFEFE;stroke-width:30.7392;stroke-linecap:round;stroke-linejoin:round}
    .fil1 {fill:none}
    .fil0 {fill:#FFB400}
   ]]>
  </style>
 </defs>
 <g id="Слой_x0020_1">
  <metadata id="CorelCorpID_0Corel-Layer"/>
  <g id="_58976785088">
   <path class="fil0" d="M486 55c-10,-3 -22,-12 -38,-20 -17,-8 -37,-14 -61,-17 -24,-4 -51,-4 -78,-1 -27,4 -55,11 -83,25 -27,15 -55,36 -80,63 -25,26 -47,58 -61,84 -13,26 -19,47 -23,69 -4,22 -8,44 -13,66 -5,21 -12,41 -19,61 -7,21 -15,41 -21,58 -6,17 -10,30 -9,44 1,15 7,31 16,45 8,13 18,23 31,31 13,8 29,13 53,17 24,4 55,6 88,5 33,-1 67,-5 99,-15 31,-9 59,-23 90,-43 30,-20 62,-46 89,-73 27,-26 48,-53 65,-83 17,-31 30,-65 37,-94 7,-28 8,-50 4,-71 -3,-22 -10,-42 -18,-59 -7,-17 -15,-31 -21,-39 -6,-8 -10,-11 -11,-13 -1,-2 1,-3 5,-7 4,-4 11,-10 19,-16 8,-6 19,-11 26,-17 8,-5 13,-10 13,-18 -1,-8 -7,-18 -14,-25 -7,-7 -14,-11 -21,-12 -6,0 -11,3 -17,9 -6,6 -12,15 -16,23 -5,8 -7,15 -12,20 -4,4 -10,7 -19,3z"/>
   <path class="fil1 str0" d="M407 74c-62,-29 -135,-20 -188,23"/>
  </g>
 </g>
</svg>
