<?xml version="1.0" encoding="UTF-8"?>
<!DOCTYPE svg PUBLIC "-//W3C//DTD SVG 1.1//EN" "http://www.w3.org/Graphics/SVG/1.1/DTD/svg11.dtd">
<!-- Creator: CorelDRAW X8 -->
<svg xmlns="http://www.w3.org/2000/svg" xml:space="preserve" width="52px" height="58px" version="1.1" style="shape-rendering:geometricPrecision; text-rendering:geometricPrecision; image-rendering:optimizeQuality; fill-rule:evenodd; clip-rule:evenodd"
viewBox="0 0 409 461"
 xmlns:xlink="http://www.w3.org/1999/xlink">
 <defs>
  <style type="text/css">
   <![CDATA[
    .str0 {stroke:#F11A7B;stroke-width:23.7414;stroke-linecap:round;stroke-linejoin:round}
    .fil1 {fill:none}
    .fil0 {fill:#F11A7B}
   ]]>
  </style>
 </defs>
 <g id="Слой_x0020_1">
  <metadata id="CorelCorpID_0Corel-Layer"/>
  <g id="_58976785120">
   <rect class="fil0" x="146" y="196" width="117.446" height="45.844"/>
   <rect class="fil0" x="146" y="295" width="117.446" height="45.844"/>
   <path class="fil0" d="M146 417c0,12 26,23 59,23 32,0 58,-11 58,-23l0 0 0 -23 -117 0 0 23z"/>
   <g>
    <path class="fil0" d="M121 232c-112,120 -150,204 -98,223 63,23 98,-29 98,-61l0 -162z"/>
    <path class="fil0" d="M289 232c111,120 149,204 97,223 -63,23 -97,-29 -97,-61l0 -162z"/>
   </g>
   <path class="fil0" d="M122 198c22,-22 51,-35 83,-35 31,0 61,13 82,35 9,-14 13,-31 13,-48 0,-52 -43,-95 -95,-95 -53,0 -96,43 -96,95 0,17 5,34 13,48z"/>
   <g>
    <path class="fil1 str0" d="M108 12c31,-3 59,18 65,49"/>
    <path class="fil1 str0" d="M301 12c-31,-3 -59,18 -65,49"/>
   </g>
  </g>
 </g>
</svg>
