<?xml version="1.0" encoding="UTF-8"?>
<!DOCTYPE svg PUBLIC "-//W3C//DTD SVG 1.1//EN" "http://www.w3.org/Graphics/SVG/1.1/DTD/svg11.dtd">
<!-- Creator: CorelDRAW X8 -->
<svg xmlns="http://www.w3.org/2000/svg" xml:space="preserve" width="51px" height="57px" version="1.1" style="shape-rendering:geometricPrecision; text-rendering:geometricPrecision; image-rendering:optimizeQuality; fill-rule:evenodd; clip-rule:evenodd"
viewBox="0 0 469 520"
 xmlns:xlink="http://www.w3.org/1999/xlink">
 <defs>
  <style type="text/css">
   <![CDATA[
    .str0 {stroke:#FEFEFE;stroke-width:18.3631;stroke-linecap:round;stroke-linejoin:round}
    .fil1 {fill:none}
    .fil0 {fill:#00798B}
   ]]>
  </style>
 </defs>
 <g id="Слой_x0020_1">
  <metadata id="CorelCorpID_0Corel-Layer"/>
  <g id="_59081920576">
   <path class="fil0" d="M469 0c-298,24 -478,265 -391,393 180,71 355,-117 391,-393z"/>
   <path class="fil1 str0" d="M432 40c-149,69 -268,188 -336,335"/>
   <path class="fil0" d="M66 404c6,-3 10,0 13,3 3,3 5,5 2,14 -3,8 -11,23 -16,36 -5,13 -7,26 -7,36 0,10 3,19 4,23 1,5 0,5 -5,3 -5,-1 -14,-6 -25,-9 -11,-4 -24,-7 -29,-11 -5,-4 -3,-9 4,-21 8,-12 22,-32 34,-47 11,-15 19,-24 25,-27z"/>
  </g>
 </g>
</svg>
