<?xml version="1.0" encoding="UTF-8"?>
<!DOCTYPE svg PUBLIC "-//W3C//DTD SVG 1.1//EN" "http://www.w3.org/Graphics/SVG/1.1/DTD/svg11.dtd">
<!-- Creator: CorelDRAW X8 -->
<svg xmlns="http://www.w3.org/2000/svg" xml:space="preserve" width="50px" height="57px" version="1.1" style="shape-rendering:geometricPrecision; text-rendering:geometricPrecision; image-rendering:optimizeQuality; fill-rule:evenodd; clip-rule:evenodd"
viewBox="0 0 565 654"
 xmlns:xlink="http://www.w3.org/1999/xlink">
 <defs>
  <style type="text/css">
   <![CDATA[
    .fil0 {fill:#9D9E9E}
   ]]>
  </style>
 </defs>
 <g id="Слой_x0020_1">
  <metadata id="CorelCorpID_0Corel-Layer"/>
  <g id="_126213029584">
   <path class="fil0" d="M402 562c-1,-6 0,-16 1,-22l7 -17 8 -12c1,0 1,0 1,-1l1 0c5,-4 8,-8 14,-11 7,-4 17,-7 25,-8 13,-1 28,2 39,9l4 3c6,4 6,3 11,9l4 4c1,2 0,1 1,3 6,9 6,9 9,19 1,1 1,2 1,3 1,7 2,24 0,29l-10 22c-1,2 -2,3 -4,4 0,1 0,1 0,1 0,0 0,0 0,0 -9,10 -6,6 -14,12 -2,1 0,0 -3,2 -7,4 -16,7 -24,8 -15,1 -27,-1 -40,-8l-2 -2c-2,-2 -7,-4 -9,-7 -6,-7 -10,-10 -14,-18 -4,-9 -5,-10 -6,-22zm-139 -194c-4,-16 13,-31 30,-22 9,5 12,17 6,28 -6,9 -21,12 -30,3 0,0 0,0 0,0 -2,-2 -5,-6 -6,-9zm10 81c9,1 16,2 25,4 5,1 15,5 19,8 2,2 2,1 4,3l10 8c1,0 0,0 1,1 4,3 7,8 11,12 3,5 5,9 8,13 4,7 10,24 12,31 1,9 3,15 3,25 0,18 4,34 12,49l4 6c0,0 0,0 0,0 2,3 4,5 6,8l27 23c4,3 8,5 14,7 2,1 2,2 5,2 2,1 4,1 6,2 14,4 39,4 51,0l9 -3c3,-1 7,-3 10,-4 5,-2 13,-8 17,-11l1 -1c0,0 0,0 0,0l14 -13 8 -12c2,-3 6,-10 8,-14 1,-4 2,-6 3,-11l3 -11c1,-6 2,-14 1,-20 -1,-6 -1,-13 -2,-18l-6 -18c-1,-2 0,0 -1,-1 -3,-6 -6,-12 -10,-17l-8 -10c0,0 0,0 0,0l-21 -17c-7,-5 -15,-8 -23,-10 -12,-4 -32,-6 -44,-3 -2,0 -3,1 -6,1 -2,1 -4,1 -6,1l-11 4c-2,1 -1,1 -2,1l-7 4c-1,0 -1,0 -2,1 0,0 -1,0 -1,0 0,0 0,0 0,0l-23 19c-1,1 -1,1 -3,2 0,-2 -1,-3 -1,-4l-54 -114c-2,-5 -4,-8 -6,-12l-9 -19c-1,-2 -1,-3 -2,-4l-7 -16c-2,-2 -3,-5 -4,-7 -1,-2 -1,-2 -2,-4 0,-1 -1,-2 -2,-4 0,0 0,0 0,-1l-8 -17c-1,-2 -1,-2 -2,-4l-7 -15c-3,-7 -7,-13 -9,-20 -1,0 -1,-1 -1,-1 -3,-6 -6,-12 -9,-18 -2,-6 -6,-13 -9,-19 0,-1 -1,-3 -1,-4l-14 -28c-3,-7 -6,-14 -9,-20l-4 -9c0,0 -1,0 -1,0l-7 -15c-1,-4 -8,-19 -11,-23l-9 -20c-1,-2 -1,-1 -2,-3l-5 -12c-1,-3 -1,-2 -2,-4l-3 -7c-1,-1 -1,-2 -1,-2l-5 -10c-1,-1 -1,-2 -2,-4l-5 -11c-1,-2 -1,-2 -2,-4 -4,-6 -6,-13 -9,-20 -2,-2 -2,-4 -4,-7 -1,-2 -3,-6 -4,-8 0,0 0,0 0,0 0,3 -3,4 -4,6l-16 36c-1,1 -1,1 -1,2 0,0 0,0 0,0 0,0 0,0 0,1l-3 9c0,3 -1,4 -2,7 -3,17 -3,35 4,50 1,1 1,2 2,3l2 4c1,2 1,5 2,7l3 7c0,2 1,2 1,3l18 46c1,0 1,0 1,1 0,0 0,0 0,0l55 135c0,0 0,1 0,1 0,0 0,0 0,0 2,2 2,5 3,7 1,2 1,1 2,3l23 59c1,2 1,2 1,4l10 24c3,4 4,9 6,14 1,2 2,3 3,7 1,3 4,10 6,13z"/>
   <path class="fil0" d="M92 491c5,0 10,0 15,0 6,1 7,2 13,3l11 5c2,1 1,0 1,1 1,0 1,0 1,0l3 2c0,0 0,0 0,1 2,1 2,1 4,3 4,3 6,5 9,8l2 3c1,1 1,1 1,2 4,5 7,12 9,18 3,8 3,30 -1,38 -2,5 -3,10 -6,14l-9 11c-1,1 -2,2 -2,2 -2,3 -7,5 -10,7 -11,9 -36,14 -54,7 -3,-1 -4,-1 -6,-3 -5,-2 -2,0 -8,-4 -5,-3 -7,-4 -12,-9 -1,-1 -2,-2 -4,-4 0,-1 -1,-2 -1,-2 -2,-2 0,1 -1,-1 0,0 0,0 0,0l-2 -4c-3,-4 -7,-14 -8,-19 -2,-6 -2,-16 -1,-23 0,-5 3,-14 5,-19l6 -10c2,-3 8,-9 11,-12l5 -4c1,-1 3,-2 4,-3 6,-3 16,-7 25,-8zm8 -35c-14,0 -29,2 -40,7 -1,1 -1,1 -4,2l-24 17c-3,3 2,-2 -1,0l-12 14c0,0 0,0 0,0l-7 12c-7,11 -11,26 -11,39l-1 7c0,4 0,7 0,11 1,11 4,19 7,28l13 22c2,2 0,1 2,2l4 5c1,1 0,0 1,1l18 15c2,2 -1,0 3,2 13,6 14,8 29,12 13,4 36,3 48,-1 1,-1 3,-1 4,-1 4,-1 13,-5 17,-7l19 -14 19 -21c3,-5 9,-17 10,-22 6,-18 3,-24 5,-42 1,-4 3,-16 4,-20l3 -6c1,-4 2,-8 3,-11 1,-1 2,-2 2,-4l8 -13c0,0 0,-1 0,-1 0,0 0,0 0,0 5,-6 9,-12 14,-17 5,-4 11,-9 17,-12 2,-1 2,-1 3,-2 0,-2 0,-4 -1,-5l-4 -9c-1,-1 -1,-3 -2,-4l-15 -35c-2,-5 -4,-12 -7,-17l-27 56c-1,3 -2,5 -3,8l-7 12c-2,4 -4,9 -6,13l-4 10c-1,0 -1,2 -2,3 -3,-2 -1,-1 -4,-4 -6,-7 -13,-11 -21,-16l-20 -10c-7,-3 -22,-4 -30,-4z"/>
   <path class="fil0" d="M339 335c2,-4 4,-13 7,-18 0,0 0,1 1,-1 2,-4 2,-9 5,-13 0,-1 -1,1 0,-1 3,-6 5,-12 8,-18l2 -5c1,-2 1,-4 2,-6l8 -20c1,-2 1,-4 2,-5l11 -26c0,-2 0,-3 1,-5 1,-3 2,-3 3,-5 0,-2 1,-4 2,-5 1,-2 1,-3 2,-6l24 -58c3,-7 6,-17 9,-24 1,-3 1,-2 2,-5l4 -10c2,-5 3,-12 4,-18 2,-8 -2,-33 -6,-42 -5,-12 -10,-25 -17,-35 -1,-3 -4,-7 -5,-9l-3 5c-3,5 -4,11 -8,16 0,0 0,0 0,1l-4 9c-2,4 -5,8 -7,13l-4 10c-4,6 -7,15 -10,21 -1,1 -1,2 -2,3l-6 13c0,1 -1,2 -1,3 -2,5 -4,8 -6,13 0,0 -1,1 -1,1 0,1 -7,16 -11,22 -1,2 -1,6 -2,8 -3,3 -5,9 -7,13l-21 43c-4,7 -7,17 -11,24 -2,4 -10,19 -10,23 1,5 15,29 18,37 1,3 1,2 2,5l20 41c1,3 3,9 5,11z"/>
  </g>
 </g>
</svg>
