<?xml version="1.0" encoding="UTF-8"?>
<!DOCTYPE svg PUBLIC "-//W3C//DTD SVG 1.1//EN" "http://www.w3.org/Graphics/SVG/1.1/DTD/svg11.dtd">
<!-- Creator: CorelDRAW X8 -->
<svg xmlns="http://www.w3.org/2000/svg" xml:space="preserve" width="51px" height="57px" version="1.1" style="shape-rendering:geometricPrecision; text-rendering:geometricPrecision; image-rendering:optimizeQuality; fill-rule:evenodd; clip-rule:evenodd"
viewBox="0 0 468 525"
 xmlns:xlink="http://www.w3.org/1999/xlink">
 <defs>
  <style type="text/css">
   <![CDATA[
    .fil0 {fill:#006234}
   ]]>
  </style>
 </defs>
 <g id="Слой_x0020_1">
  <metadata id="CorelCorpID_0Corel-Layer"/>
  <path class="fil0" d="M88 507c3,-6 11,-12 18,-19 8,-8 16,-17 25,-28 8,-11 17,-25 23,-37 6,-13 9,-24 11,-39 3,-14 4,-33 3,-46 -1,-13 -3,-21 -11,-29 -7,-8 -18,-16 -32,-23 -14,-6 -30,-10 -45,-16 -15,-5 -29,-13 -39,-21 -10,-7 -17,-14 -17,-21 -1,-6 5,-13 12,-16 8,-3 18,-3 28,-1 10,3 21,7 32,13 10,5 20,11 30,20 10,9 19,22 24,29 6,6 8,8 10,6 2,-1 4,-5 2,-11 -2,-7 -8,-15 -15,-25 -8,-10 -18,-21 -28,-29 -11,-9 -23,-15 -36,-20 -13,-5 -27,-9 -42,-16 -14,-7 -29,-17 -36,-26 -7,-9 -6,-16 0,-21 6,-5 18,-7 31,-6 13,1 27,5 39,11 12,7 22,15 30,24 8,8 14,16 18,21 4,4 6,5 8,3 1,-3 2,-8 0,-15 -2,-7 -6,-15 -11,-24 -6,-10 -13,-20 -14,-37 -2,-16 2,-38 7,-55 4,-17 10,-29 16,-37 7,-9 13,-14 19,-15 5,-2 9,0 13,8 4,8 6,21 7,38 1,16 0,35 -2,53 -2,19 -5,36 -7,47 -2,11 -4,14 -5,19 -2,6 -4,13 -3,21 0,8 2,18 5,28 3,10 7,20 12,30 4,10 8,20 12,26 3,6 6,8 8,9 2,0 4,-1 4,-9 1,-7 0,-21 1,-34 2,-13 6,-27 14,-41 8,-13 20,-27 31,-36 10,-9 19,-13 26,-13 7,-1 12,2 14,8 1,6 -1,15 -4,27 -4,11 -9,24 -16,38 -7,15 -15,32 -22,46 -8,13 -16,24 -22,30 -6,5 -10,6 -13,8 -2,1 -3,4 -3,10 -1,7 -3,18 -4,29 0,11 0,22 1,29 0,6 0,8 3,8 2,-1 6,-3 11,-6 5,-4 12,-10 16,-16 4,-5 6,-10 7,-16 2,-6 3,-13 10,-23 6,-10 17,-23 27,-35 10,-12 19,-22 25,-28 7,-7 11,-9 15,-7 5,1 9,6 10,14 1,9 -1,21 -6,32 -5,11 -12,22 -20,30 -7,9 -16,16 -21,20 -6,4 -8,6 -9,8 -2,3 -2,5 1,6 2,1 7,1 14,1 6,-1 15,-2 25,-4 9,-1 18,-3 27,-8 9,-5 18,-13 29,-22 11,-8 24,-18 36,-27 12,-8 22,-15 32,-20 10,-6 20,-10 26,-11 7,-1 11,0 13,4 2,3 2,7 -1,16 -3,9 -10,22 -19,31 -9,10 -19,15 -28,20 -9,4 -17,8 -25,10 -9,1 -18,2 -25,3 -7,2 -11,3 -13,5 -2,2 -1,4 3,7 5,2 15,5 24,8 9,3 18,6 25,11 8,5 14,12 18,19 5,6 8,11 9,17 1,5 0,11 -5,13 -4,2 -12,2 -22,-3 -10,-4 -22,-12 -33,-20 -11,-8 -22,-16 -29,-21 -8,-4 -14,-6 -22,-6 -8,-1 -18,-1 -23,0 -5,0 -3,3 0,5 4,3 10,5 20,9 9,4 21,11 30,19 9,8 13,17 15,24 2,7 1,11 -4,13 -5,2 -13,3 -24,-1 -11,-4 -24,-13 -36,-21 -11,-9 -20,-17 -28,-23 -8,-6 -14,-10 -21,-12 -6,-2 -12,-3 -19,-2 -7,0 -14,1 -21,7 -7,6 -15,16 -22,28 -8,12 -17,26 -26,38 -9,13 -19,25 -29,35 -9,9 -18,16 -27,20 -8,4 -17,5 -20,2 -4,-3 -4,-10 0,-16z"/>
 </g>
</svg>
