<?xml version="1.0" encoding="UTF-8"?>
<!DOCTYPE svg PUBLIC "-//W3C//DTD SVG 1.1//EN" "http://www.w3.org/Graphics/SVG/1.1/DTD/svg11.dtd">
<!-- Creator: CorelDRAW X8 -->
<svg xmlns="http://www.w3.org/2000/svg" xml:space="preserve" width="45px" height="57px" version="1.1" style="shape-rendering:geometricPrecision; text-rendering:geometricPrecision; image-rendering:optimizeQuality; fill-rule:evenodd; clip-rule:evenodd"
viewBox="0 0 301 374"
 xmlns:xlink="http://www.w3.org/1999/xlink">
 <defs>
  <style type="text/css">
   <![CDATA[
    .fil1 {fill:#FEFEFE}
    .fil0 {fill:#FF7400}
   ]]>
  </style>
 </defs>
 <g id="Слой_x0020_1">
  <metadata id="CorelCorpID_0Corel-Layer"/>
  <g id="_58976785024">
   <path class="fil0" d="M0 255c0,136 190,180 222,0 18,-98 79,-93 79,-170 0,-51 -34,-85 -85,-85 -83,0 -84,74 -112,124 -24,43 -104,68 -104,131z"/>
   <path class="fil1" d="M201 257c-7,4 -13,8 -20,10 -3,12 -7,24 -13,34 8,0 16,-1 24,-2 -9,4 -19,7 -28,7l1 0c-1,3 -3,5 -5,8 -10,13 -23,21 -36,29 11,-10 23,-19 32,-33 1,-1 2,-2 3,-4l0 0c-16,0 -32,-7 -47,-20 17,8 34,13 50,15 5,-10 10,-21 13,-32l0 0c-22,6 -46,0 -70,-16 25,9 49,13 71,10 0,-1 1,-1 1,-2 3,-13 4,-25 5,-36 1,-4 2,-8 2,-11 4,-14 10,-25 21,-38 11,-14 26,-29 41,-44 -13,16 -27,33 -37,47 -10,14 -16,25 -20,39 0,2 -1,4 -1,7 -2,11 -3,24 -6,37 7,-1 13,-3 19,-5z"/>
  </g>
 </g>
</svg>
