<?xml version="1.0" encoding="UTF-8"?>
<!DOCTYPE svg PUBLIC "-//W3C//DTD SVG 1.1//EN" "http://www.w3.org/Graphics/SVG/1.1/DTD/svg11.dtd">
<!-- Creator: CorelDRAW X8 -->
<svg xmlns="http://www.w3.org/2000/svg" xml:space="preserve" width="27px" height="57px" version="1.1" style="shape-rendering:geometricPrecision; text-rendering:geometricPrecision; image-rendering:optimizeQuality; fill-rule:evenodd; clip-rule:evenodd"
viewBox="0 0 1092 2265"
 xmlns:xlink="http://www.w3.org/1999/xlink">
 <defs>
  <style type="text/css">
   <![CDATA[
    .fil0 {fill:#006234}
   ]]>
  </style>
 </defs>
 <g id="Слой_x0020_1">
  <metadata id="CorelCorpID_0Corel-Layer"/>
  <g id="_1086593699440">
   <path class="fil0" d="M1028 0c36,0 64,29 64,64 0,24 -13,45 -33,56l0 80 24 0 0 44 -572 0 0 129c0,9 -21,16 -47,16 -27,0 -48,-7 -48,-16l0 -223 95 0 0 50 487 0 0 -80c-20,-11 -33,-32 -33,-56 0,-35 28,-64 63,-64z"/>
   <path class="fil0" d="M393 372c-223,30 -393,197 -393,399 0,223 208,404 464,404 256,0 464,-181 464,-404 0,-202 -171,-369 -393,-399 1,2 1,3 1,5 0,14 -32,25 -72,25 -40,0 -73,-11 -73,-25 0,-2 1,-3 2,-5z"/>
   <path class="fil0" d="M803 1296c-29,-61 -55,-110 -80,-160 -164,82 -355,82 -518,0 -26,50 -52,99 -81,160 -29,61 -62,134 -80,209 -17,75 -19,153 -20,251 -1,99 -1,219 3,287 5,68 14,84 42,105 29,22 77,48 133,69 57,21 121,35 166,42 44,7 69,6 95,5 26,1 52,2 97,-5 45,-7 109,-21 165,-42 56,-21 105,-47 133,-69 29,-21 38,-37 42,-105 4,-68 4,-188 4,-287 -1,-98 -3,-176 -21,-251 -17,-75 -50,-148 -80,-209z"/>
  </g>
 </g>
</svg>
