<?xml version="1.0" encoding="UTF-8"?>
<!DOCTYPE svg PUBLIC "-//W3C//DTD SVG 1.1//EN" "http://www.w3.org/Graphics/SVG/1.1/DTD/svg11.dtd">
<!-- Creator: CorelDRAW X8 -->
<svg xmlns="http://www.w3.org/2000/svg" xml:space="preserve" width="32px" height="57px" version="1.1" style="shape-rendering:geometricPrecision; text-rendering:geometricPrecision; image-rendering:optimizeQuality; fill-rule:evenodd; clip-rule:evenodd"
viewBox="0 0 178 317"
 xmlns:xlink="http://www.w3.org/1999/xlink">
 <defs>
  <style type="text/css">
   <![CDATA[
    .fil0 {fill:#006234}
   ]]>
  </style>
 </defs>
 <g id="Слой_x0020_1">
  <metadata id="CorelCorpID_0Corel-Layer"/>
  <path class="fil0" d="M81 317c4,-83 7,-166 10,-251 6,68 7,152 2,251 43,-27 70,-57 84,-92 -4,2 -8,3 -14,2 10,-13 15,-32 15,-56 -4,7 -11,12 -21,14 4,-21 4,-40 2,-57 -4,7 -12,10 -25,11 5,-19 6,-38 2,-57 -2,7 -8,11 -17,13 4,-13 4,-29 1,-48 -6,6 -12,9 -18,9 -1,-15 -6,-33 -14,-56 -9,12 -14,28 -17,50 -6,-1 -12,-3 -18,-6 -5,17 -6,33 -4,47 -7,0 -12,-4 -18,-11 -3,26 -2,48 2,68 -8,-2 -16,-7 -25,-15 1,22 3,44 8,66 -4,-2 -10,-6 -16,-11 4,21 11,39 21,56 -7,-1 -13,-4 -19,-8 6,24 33,51 79,81z"/>
 </g>
</svg>
