<?xml version="1.0" encoding="UTF-8"?>
<!DOCTYPE svg PUBLIC "-//W3C//DTD SVG 1.1//EN" "http://www.w3.org/Graphics/SVG/1.1/DTD/svg11.dtd">
<!-- Creator: CorelDRAW X8 -->
<svg xmlns="http://www.w3.org/2000/svg" xml:space="preserve" width="57px" height="51px" version="1.1" style="shape-rendering:geometricPrecision; text-rendering:geometricPrecision; image-rendering:optimizeQuality; fill-rule:evenodd; clip-rule:evenodd"
viewBox="0 0 563 505"
 xmlns:xlink="http://www.w3.org/1999/xlink">
 <defs>
  <style type="text/css">
   <![CDATA[
    .fil0 {fill:#D99200}
   ]]>
  </style>
 </defs>
 <g id="Слой_x0020_1">
  <metadata id="CorelCorpID_0Corel-Layer"/>
  <path class="fil0" d="M199 0c-8,1 -16,6 -23,16 -7,10 -13,25 -15,40 -1,16 1,34 7,51 5,16 14,33 26,45 12,13 28,22 45,30 16,7 34,12 53,16 18,5 37,9 52,13 16,3 28,4 43,8 14,4 30,10 40,15 10,6 13,11 13,17 0,6 -2,12 -7,16 -5,3 -13,3 -24,0 -11,-4 -26,-10 -40,-15 -13,-5 -26,-8 -39,-10 -12,-2 -25,-1 -37,1 -12,2 -23,6 -33,11 -10,5 -20,11 -29,17 -9,6 -17,12 -26,14 -8,3 -17,2 -26,-2 -10,-3 -19,-10 -32,-15 -12,-4 -26,-6 -40,-5 -13,0 -27,2 -37,9 -11,7 -19,18 -25,29 -7,12 -12,23 -19,33 -7,10 -17,18 -22,25 -5,6 -5,10 -2,13 2,4 9,7 17,8 8,2 18,2 28,0 10,-1 21,-4 30,-7 8,-3 15,-6 21,-5 5,0 9,3 14,9 6,6 13,15 16,23 3,9 2,18 -1,27 -3,8 -8,17 -15,22 -7,6 -15,7 -21,11 -5,3 -7,8 -5,12 3,4 9,8 16,9 8,1 16,0 25,-3 8,-3 16,-8 23,-15 6,-7 11,-15 16,-21 5,-6 10,-10 16,-9 6,0 12,5 15,11 4,6 4,13 2,20 -3,7 -8,15 -14,20 -5,4 -10,6 -13,9 -4,3 -6,8 -2,10 4,2 13,2 21,2 8,-1 14,-1 20,-6 6,-4 11,-12 18,-18 6,-6 14,-11 21,-17 7,-7 13,-16 16,-21 4,-6 4,-8 11,-10 6,-1 19,-1 30,-1 11,0 20,0 28,0 9,0 16,0 21,2 5,2 8,6 7,10 0,5 -4,11 -10,13 -5,3 -13,2 -18,4 -5,2 -9,7 -8,11 0,4 4,6 9,8 5,2 11,3 19,2 8,-1 17,-4 26,-8 9,-4 18,-10 24,-15 5,-6 9,-11 14,-13 5,-2 11,-1 15,2 4,3 6,8 5,13 -1,4 -4,6 -8,9 -4,2 -9,5 -12,8 -3,3 -4,8 -1,11 2,3 7,5 12,5 5,1 11,0 16,-1 6,-2 11,-5 14,-10 3,-5 5,-12 8,-22 3,-9 7,-21 8,-31 2,-11 1,-20 1,-30 -1,-10 -1,-19 1,-27 2,-7 6,-11 11,-16 6,-5 12,-9 21,-19 9,-10 19,-25 28,-41 9,-16 17,-32 21,-48 4,-17 5,-34 2,-50 -2,-17 -8,-34 -16,-47 -8,-14 -19,-24 -31,-32 -11,-8 -24,-15 -43,-21 -18,-6 -41,-11 -62,-13 -22,-3 -42,-2 -59,-2 -17,0 -32,-1 -48,-5 -15,-4 -30,-12 -43,-24 -13,-11 -23,-25 -28,-33 -4,-9 -4,-11 -8,-15 -5,-3 -15,-8 -24,-7zm25 72c6,1 14,10 22,16 8,7 17,13 29,17 12,5 29,9 45,11 17,2 35,2 55,4 19,2 40,6 60,13 19,6 36,16 50,26 14,10 25,20 32,30 6,11 9,22 10,34 0,12 -1,25 -5,37 -3,13 -8,24 -18,36 -9,12 -23,26 -36,35 -12,8 -24,10 -39,8 -15,-2 -34,-8 -47,-14 -14,-7 -23,-14 -32,-19 -9,-6 -19,-9 -30,-9 -11,0 -22,3 -35,9 -12,6 -26,14 -37,21 -10,7 -19,12 -28,15 -10,3 -21,5 -30,4 -9,-1 -17,-3 -24,-8 -8,-5 -16,-13 -21,-20 -6,-8 -9,-14 -13,-18 -4,-4 -8,-6 -14,-4 -6,1 -12,5 -18,9 -6,3 -11,5 -16,5 -5,1 -10,0 -11,-3 -1,-3 2,-8 7,-13 5,-5 13,-9 21,-12 7,-4 15,-6 22,-5 8,1 16,5 22,9 7,5 13,9 21,12 8,2 19,3 30,1 11,-3 23,-8 35,-14 12,-6 26,-13 39,-19 13,-5 25,-8 35,-10 11,-1 18,-1 29,1 10,2 22,7 35,11 13,5 25,10 37,12 13,3 24,3 33,0 9,-3 16,-9 21,-16 5,-7 8,-15 8,-25 0,-9 -3,-21 -11,-31 -8,-10 -20,-19 -37,-26 -17,-8 -38,-14 -60,-17 -21,-4 -43,-7 -61,-10 -18,-4 -31,-9 -43,-17 -11,-7 -21,-17 -28,-27 -8,-10 -13,-20 -13,-27 -1,-8 4,-13 9,-12z"/>
 </g>
</svg>
