<?xml version="1.0" encoding="UTF-8"?>
<!DOCTYPE svg PUBLIC "-//W3C//DTD SVG 1.1//EN" "http://www.w3.org/Graphics/SVG/1.1/DTD/svg11.dtd">
<!-- Creator: CorelDRAW X8 -->
<svg xmlns="http://www.w3.org/2000/svg" xml:space="preserve" width="53px" height="57px" version="1.1" style="shape-rendering:geometricPrecision; text-rendering:geometricPrecision; image-rendering:optimizeQuality; fill-rule:evenodd; clip-rule:evenodd"
viewBox="0 0 465 502"
 xmlns:xlink="http://www.w3.org/1999/xlink">
 <defs>
  <style type="text/css">
   <![CDATA[
    .fil0 {fill:#D99200}
   ]]>
  </style>
 </defs>
 <g id="Слой_x0020_1">
  <metadata id="CorelCorpID_0Corel-Layer"/>
  <path class="fil0" d="M0 0l465 0 0 48c-11,3 -19,13 -19,26 0,12 8,22 19,25l0 106c-18,7 -31,25 -31,45 0,21 13,38 31,45l0 207 -357 0c0,-25 -20,-45 -45,-45 -25,0 -45,20 -45,45l-18 0 0 -246c27,0 49,-22 49,-49 0,-26 -22,-48 -49,-48l0 -159zm314 148c12,0 21,10 21,22 0,12 -9,22 -21,22 -12,0 -22,-10 -22,-22 0,-12 10,-22 22,-22zm-198 163c12,0 22,10 22,22 0,12 -10,22 -22,22 -12,0 -21,-10 -21,-22 0,-12 9,-22 21,-22zm182 50c31,0 56,25 56,56 0,31 -25,56 -56,56 -31,0 -56,-25 -56,-56 0,-31 25,-56 56,-56zm-161 -192c25,0 45,20 45,45 0,25 -20,45 -45,45 -25,0 -45,-20 -45,-45 0,-25 20,-45 45,-45zm-83 -156c21,0 37,17 37,37 0,21 -16,37 -37,37 -20,0 -36,-16 -36,-37 0,-20 16,-37 36,-37zm260 251c19,0 34,16 34,35 0,19 -15,34 -34,34 -19,0 -35,-15 -35,-34 0,-19 16,-35 35,-35zm-13 -223c15,0 27,12 27,27 0,15 -12,27 -27,27 -15,0 -27,-12 -27,-27 0,-15 12,-27 27,-27z"/>
 </g>
</svg>
