<?xml version="1.0" encoding="UTF-8"?>
<!DOCTYPE svg PUBLIC "-//W3C//DTD SVG 1.1//EN" "http://www.w3.org/Graphics/SVG/1.1/DTD/svg11.dtd">
<!-- Creator: CorelDRAW X8 -->
<svg xmlns="http://www.w3.org/2000/svg" xml:space="preserve" width="56px" height="57px" version="1.1" style="shape-rendering:geometricPrecision; text-rendering:geometricPrecision; image-rendering:optimizeQuality; fill-rule:evenodd; clip-rule:evenodd"
viewBox="0 0 592 607"
 xmlns:xlink="http://www.w3.org/1999/xlink">
 <defs>
  <style type="text/css">
   <![CDATA[
    .fil0 {fill:#FFB400}
   ]]>
  </style>
 </defs>
 <g id="Слой_x0020_1">
  <metadata id="CorelCorpID_0Corel-Layer"/>
  <g id="_58976764672">
   <path class="fil0" d="M458 539c12,-34 19,-64 23,-104 0,-9 0,-10 0,-21 1,-10 -2,-12 0,-21 16,17 19,31 16,62l9 -15c1,24 -1,27 -7,50l13 -14 -10 33c22,-7 50,-49 43,-79 -3,-13 -10,-18 -15,-28 6,4 7,8 13,12 -7,-27 -29,-35 -51,-43 25,-2 40,13 55,27l-10 -19c21,14 24,19 38,36l-4 -17c12,10 14,19 21,26 0,-27 -3,-42 -15,-59 -17,-24 -35,-23 -59,-24 5,-1 13,-3 18,-5 -24,-7 -48,0 -59,14 7,-15 25,-27 40,-27 -1,-1 -1,-2 -2,-2l-6 -6c11,-2 16,-8 33,-6l-9 -8 23 -1c-8,-12 -22,-26 -41,-21 -12,3 -27,14 -34,28 1,-4 1,-3 2,-6l0 -6c-6,10 -15,19 -20,33 -4,-3 -4,-8 -8,-11l-3 0c-8,-3 -9,-15 -20,-21 -19,-12 -36,-3 -44,10l15 2 -2 8c12,0 16,3 26,9 -3,4 -1,1 -7,3 11,5 26,13 30,27 -14,-17 -28,-16 -46,-18 3,5 8,4 13,9 -12,-4 -17,-3 -27,-1 -23,5 -49,35 -42,65 5,-7 14,-16 17,-22 1,7 -2,9 -1,16 7,-12 19,-20 29,-25l0 10c12,-12 24,-17 46,-15l-3 1c0,0 -2,1 -3,1l-20 8c-8,5 -13,13 -18,24 6,-4 4,-6 12,-8 -12,17 -22,30 -12,54 6,15 16,30 32,39 -1,-6 -2,-6 -4,-13 -2,-5 -3,-10 -3,-15l8 9c-2,-16 -5,-21 -3,-41 6,7 2,6 8,13 -1,-30 1,-37 17,-57 11,31 -11,108 -30,143l38 7z"/>
   <path class="fil0" d="M100 26c12,5 26,2 40,13l-21 7c14,10 45,10 58,34l-21 -2c3,7 12,7 20,14 7,6 13,10 18,17 9,13 18,27 24,47 -19,-35 -50,-60 -99,-59l18 10c7,4 11,6 16,12 -34,-11 -63,-27 -105,9 -28,24 -42,61 -48,103 14,-10 29,-34 46,-41 -4,9 -13,22 -15,34 14,-22 51,-43 74,-49 -7,12 -15,14 -20,28 16,-9 23,-17 43,-22 24,-7 36,-3 57,0 -19,10 -53,-12 -91,38 -1,2 -2,3 -4,6 -5,7 -2,2 -4,7 12,-6 19,-13 34,-16 0,0 -1,0 -1,1l-4 3c-2,2 -4,3 -6,4 -49,33 -48,107 -17,158l23 34c2,4 5,8 9,9 -3,-12 -11,-53 -7,-66 6,8 9,26 18,34 -4,-30 -10,-70 4,-97 4,10 4,26 10,37 0,-26 2,-49 11,-68 8,-14 21,-35 37,-41 0,15 -1,11 -5,20 -4,8 -5,13 -5,24 0,16 -1,9 -5,22 -3,13 0,17 -1,28 0,6 -4,11 -4,21 -1,14 3,15 0,28 -2,11 -3,13 -1,26 2,16 0,12 0,26 0,9 3,19 4,25 1,10 -2,17 0,29 2,13 4,10 5,25 0,13 0,15 4,26 4,11 11,33 13,42l71 -9c-10,-16 -7,-22 -14,-41 -3,-8 -5,-9 -6,-17l-13 -60c-7,-22 -5,-54 -6,-63 -5,-28 0,-20 -2,-41 -2,-16 -1,-7 1,-21 2,-10 -1,-15 0,-23 0,-7 4,-11 4,-20 1,-17 -1,-21 8,-38 31,53 19,70 10,112 8,-8 10,-14 18,-24 1,15 -3,31 -7,44 -5,15 -13,24 -16,35 9,-6 17,-15 25,-22 -7,14 -13,38 -25,48l11 -1c4,-1 8,-3 11,-5 51,-34 81,-91 36,-156 9,7 17,18 25,30 -3,-23 -14,-41 -24,-53 -16,-20 -23,-18 -43,-30 36,-1 68,31 82,55 -2,-12 -7,-22 -11,-31 11,6 20,18 28,28 10,12 14,24 22,38l-4 -33c6,15 19,25 26,50 14,-25 4,-147 -96,-146 10,-6 22,-4 34,-5 -38,-19 -62,-13 -94,8 12,-21 38,-35 67,-36 -7,-6 -10,-5 -18,-9 23,-10 31,-8 54,-5 -4,-6 -9,-9 -13,-15 12,-1 25,1 35,5 -7,-36 -60,-70 -105,-15 -4,6 -1,3 -7,7 4,-10 7,-13 11,-20 -10,5 -25,24 -32,33 -7,-35 -14,-51 -29,-79 3,13 8,25 9,40 -14,-30 -18,-56 -47,-73 -24,-15 -65,-7 -78,18z"/>
   <path class="fil0" d="M60 590c-22,8 -23,13 -25,17l557 0c0,-6 -1,-12 -14,-22 -14,-11 -41,-27 -65,-37 -7,-3 -14,-6 -20,-8 -13,-4 -26,-6 -39,-7 -4,-1 -8,-1 -12,-1 -25,-1 -54,1 -83,6 -30,4 -60,11 -81,15 -8,2 -15,3 -21,3 -10,1 -19,2 -29,3 -13,1 -27,2 -47,5 -7,1 -14,2 -23,4 -32,6 -75,15 -98,22z"/>
  </g>
 </g>
</svg>
