<?xml version="1.0" encoding="UTF-8"?>
<!DOCTYPE svg PUBLIC "-//W3C//DTD SVG 1.1//EN" "http://www.w3.org/Graphics/SVG/1.1/DTD/svg11.dtd">
<!-- Creator: CorelDRAW X8 -->
<svg xmlns="http://www.w3.org/2000/svg" xml:space="preserve" width="57px" height="54px" version="1.1" style="shape-rendering:geometricPrecision; text-rendering:geometricPrecision; image-rendering:optimizeQuality; fill-rule:evenodd; clip-rule:evenodd"
viewBox="0 0 614 584"
 xmlns:xlink="http://www.w3.org/1999/xlink">
 <defs>
  <style type="text/css">
   <![CDATA[
    .fil0 {fill:#FF7500}
   ]]>
  </style>
 </defs>
 <g id="Слой_x0020_1">
  <metadata id="CorelCorpID_0Corel-Layer"/>
  <path class="fil0" d="M201 356c3,0 3,1 1,2 -62,50 -90,125 -85,226 98,-26 161,-77 189,-151 1,-2 1,-2 2,0 28,74 91,125 189,151 5,-101 -23,-176 -85,-226 -2,-1 -2,-2 1,-2 79,-4 146,-48 201,-133 -95,-36 -175,-33 -241,11 -2,1 -3,1 -2,-2 21,-76 0,-153 -64,-232 -64,79 -85,156 -64,232 1,3 0,3 -2,2 -66,-44 -147,-47 -241,-11 55,85 122,129 201,133z"/>
 </g>
</svg>
