<?xml version="1.0" encoding="UTF-8"?>
<!DOCTYPE svg PUBLIC "-//W3C//DTD SVG 1.1//EN" "http://www.w3.org/Graphics/SVG/1.1/DTD/svg11.dtd">
<!-- Creator: CorelDRAW X8 -->
<svg xmlns="http://www.w3.org/2000/svg" xml:space="preserve" width="49px" height="57px" version="1.1" style="shape-rendering:geometricPrecision; text-rendering:geometricPrecision; image-rendering:optimizeQuality; fill-rule:evenodd; clip-rule:evenodd"
viewBox="0 0 341 394"
 xmlns:xlink="http://www.w3.org/1999/xlink">
 <defs>
  <style type="text/css">
   <![CDATA[
    .fil0 {fill:#00B800}
   ]]>
  </style>
 </defs>
 <g id="Слой_x0020_1">
  <metadata id="CorelCorpID_0Corel-Layer"/>
  <path class="fil0" d="M162 45c-3,11 -3,21 -3,30 -1,0 -2,0 -3,0 -8,-3 -19,-6 -36,-8 -17,-1 -39,-1 -56,4 -17,5 -29,15 -39,28 -10,13 -19,31 -23,51 -4,21 -2,45 5,78 8,34 21,78 30,105 10,27 15,38 23,46 8,7 19,11 32,13 13,3 29,3 40,1 11,-1 18,-5 23,-8 6,-2 11,-4 15,-6 5,2 10,4 16,6 5,3 11,7 23,8 11,2 27,2 40,-1 13,-2 24,-6 32,-13 8,-8 13,-19 22,-46 10,-27 23,-71 30,-105 8,-33 10,-57 6,-78 -4,-20 -13,-38 -23,-51 -10,-13 -22,-23 -39,-28 -17,-5 -39,-5 -56,-4 -17,2 -28,5 -36,8 -1,0 -2,0 -2,0 1,-8 2,-17 5,-24 3,-8 7,-14 12,-19 5,-4 10,-8 12,-12 2,-3 2,-6 -1,-10 -2,-3 -6,-7 -10,-9 -4,-1 -8,-1 -12,1 -4,2 -9,6 -15,13 -5,8 -10,20 -12,30z"/>
 </g>
</svg>
