<?xml version="1.0" encoding="UTF-8"?>
<!DOCTYPE svg PUBLIC "-//W3C//DTD SVG 1.1//EN" "http://www.w3.org/Graphics/SVG/1.1/DTD/svg11.dtd">
<!-- Creator: CorelDRAW X8 -->
<svg xmlns="http://www.w3.org/2000/svg" xml:space="preserve" width="57px" height="51px" version="1.1" style="shape-rendering:geometricPrecision; text-rendering:geometricPrecision; image-rendering:optimizeQuality; fill-rule:evenodd; clip-rule:evenodd"
viewBox="0 0 458 414"
 xmlns:xlink="http://www.w3.org/1999/xlink">
 <defs>
  <style type="text/css">
   <![CDATA[
    .str0 {stroke:#FEFEFE;stroke-width:16.1049;stroke-linecap:round;stroke-linejoin:round}
    .fil1 {fill:none}
    .fil0 {fill:#F11A7B}
    .fil2 {fill:#F11A7B}
   ]]>
  </style>
 </defs>
 <g id="Слой_x0020_1">
  <metadata id="CorelCorpID_0Corel-Layer"/>
  <g id="_59084796144">
   <path class="fil0" d="M112 195c-11,-22 -23,-43 -42,-56 17,24 19,34 27,58 -1,-1 -3,-1 -4,-1 -37,-6 -61,-45 -73,-111 60,23 92,57 97,101 1,4 -1,8 -5,9z"/>
   <path class="fil0" d="M353 245c5,-24 11,-47 26,-65 -10,27 -10,37 -11,62 1,0 3,-1 4,-1 34,-16 47,-59 41,-127 -51,38 -73,79 -68,124 1,4 4,7 8,7z"/>
   <path class="fil0" d="M133 177c-15,40 -44,41 -85,2 -30,17 -48,48 -48,82 0,51 42,93 93,93 51,0 93,-42 93,-93 0,-36 -21,-69 -53,-84z"/>
   <path class="fil1 str0" d="M30 234c-7,17 -6,36 1,53 8,17 22,30 39,36"/>
   <path class="fil0" d="M398 233c-22,19 -39,40 -68,2 -33,16 -58,52 -58,86 0,51 42,93 93,93 52,0 93,-42 93,-93 0,-36 -26,-73 -60,-88z"/>
   <path class="fil1 str0" d="M325 266c-14,12 -23,29 -24,47 -2,18 4,36 16,50"/>
   <path class="fil2" d="M133 177c3,1 5,2 8,4 3,2 6,4 8,6 54,-76 77,-138 71,-187 -6,0 -13,0 -20,0 6,46 -16,105 -67,177z"/>
   <path class="fil2" d="M334 227c-1,-17 1,-15 4,-30 -28,-88 -78,-152 -118,-182 -4,5 -8,11 -12,16 40,23 96,113 126,196z"/>
  </g>
 </g>
</svg>
